<svg width="18.374939" height="13.999954" viewBox="0 0 18.3749 14" fill="none" xmlns="http://www.w3.org/2000/svg" xmlns:xlink="http://www.w3.org/1999/xlink">
	<desc>
			Created with Pixso.
	</desc>
	<defs/>
	<path id="Vector" d="M15.5791 1.18239C15.574 1.1725 15.5655 1.16475 15.5552 1.16052C14.3639 0.613907 13.1067 0.224136 11.815 0.000961304C11.8033 -0.0012207 11.7912 0.000350952 11.7804 0.00544739C11.7696 0.0105591 11.7607 0.0189362 11.7549 0.0293884C11.5837 0.340103 11.4283 0.659271 11.2893 0.985641C9.897 0.774292 8.4808 0.774292 7.0885 0.985641C6.94855 0.658432 6.79065 0.339203 6.61554 0.0293884C6.6095 0.019165 6.60059 0.0109863 6.58984 0.00590515C6.5791 0.000839233 6.56714 -0.00088501 6.55542 0.000961304C5.26367 0.223679 4.00635 0.61348 2.81512 1.16055C2.80493 1.16487 2.79633 1.17226 2.79053 1.18167C0.408386 4.73911 -0.244202 8.20908 0.0759277 11.6361C0.0768433 11.6445 0.0794067 11.6526 0.0834961 11.66C0.0876465 11.6674 0.0932007 11.6739 0.0998535 11.679C1.48694 12.7061 3.03845 13.4901 4.68811 13.9975C4.69977 14.0009 4.71216 14.0008 4.72369 13.997C4.73517 13.9932 4.7453 13.986 4.75256 13.9763C5.10693 13.4942 5.42084 12.9837 5.69122 12.45C5.69495 12.4427 5.69708 12.4347 5.69745 12.4265C5.69788 12.4183 5.69647 12.4101 5.69348 12.4024C5.69049 12.3948 5.68591 12.3879 5.67999 12.3821C5.67413 12.3764 5.66711 12.372 5.65942 12.3691C5.16431 12.1797 4.68506 11.9514 4.22601 11.6862C4.21771 11.6813 4.21069 11.6745 4.20563 11.6662C4.20056 11.658 4.19763 11.6486 4.19708 11.6389C4.19653 11.6293 4.1983 11.6196 4.20233 11.6108C4.20642 11.6021 4.21252 11.5944 4.22028 11.5885C4.31653 11.5164 4.41296 11.4413 4.50488 11.3655C4.51306 11.3588 4.52295 11.3545 4.53345 11.3531C4.54395 11.3517 4.55463 11.3532 4.56427 11.3575C7.57141 12.7299 10.8271 12.7299 13.7986 11.3575C13.8083 11.3529 13.8191 11.3512 13.8298 11.3524C13.8404 11.3537 13.8505 11.358 13.8588 11.3648C13.9508 11.4406 14.0471 11.5164 14.1442 11.5885C14.1519 11.5943 14.1581 11.6019 14.1622 11.6107C14.1663 11.6195 14.1682 11.6291 14.1677 11.6387C14.1672 11.6484 14.1643 11.6578 14.1593 11.6661C14.1543 11.6743 14.1474 11.6813 14.1391 11.6862C13.6811 11.9536 13.2014 12.1818 12.705 12.3684C12.6973 12.3714 12.6903 12.3759 12.6845 12.3817C12.6786 12.3875 12.6741 12.3945 12.6711 12.4022C12.6682 12.4099 12.6669 12.4182 12.6674 12.4264C12.6678 12.4346 12.67 12.4427 12.6738 12.45C12.9487 12.9808 13.2622 13.4906 13.6117 13.9755C13.6188 13.9854 13.6288 13.9929 13.6404 13.9968C13.652 14.0007 13.6645 14.0009 13.6762 13.9974C15.3288 13.4917 16.883 12.7077 18.2719 11.679C18.2786 11.6741 18.2843 11.6678 18.2884 11.6605C18.2925 11.6532 18.295 11.6451 18.2958 11.6368C18.679 7.67484 17.6541 4.23331 15.5791 1.18239ZM6.14032 9.54939C5.23499 9.54939 4.48895 8.71855 4.48895 7.69818C4.48895 6.6778 5.22052 5.84689 6.14032 5.84689C7.06738 5.84689 7.80615 6.68501 7.79169 7.6981C7.79169 8.71855 7.06012 9.54939 6.14032 9.54939ZM12.246 9.54939C11.3406 9.54939 10.5946 8.71855 10.5946 7.69818C10.5946 6.6778 11.3261 5.84689 12.246 5.84689C13.1731 5.84689 13.9118 6.68501 13.8973 7.6981C13.8973 8.71855 13.1731 9.54939 12.246 9.54939Z" fill="#FFFFFF" fill-opacity="1.000000" fill-rule="nonzero"/>
</svg>
