<svg width="12.570572" height="15.000015" viewBox="0 0 12.5706 15" fill="none" xmlns="http://www.w3.org/2000/svg" xmlns:xlink="http://www.w3.org/1999/xlink">
	<desc>
			Created with Pixso.
	</desc>
	<defs/>
	<path id="Vector" d="M12.4414 7.18837L10.1062 4.85326C9.93398 4.68106 9.65535 4.68083 9.48315 4.85187C9.3105 5.02303 9.3089 5.30229 9.47925 5.47563L11.0374 7.06055L4.76463 7.06055C4.52094 7.06055 4.32324 7.25621 4.32324 7.5C4.32324 7.7438 4.52095 7.93945 4.76463 7.93945L11.0636 7.93945L9.48177 9.52229C9.30957 9.69461 9.30957 9.97475 9.48177 10.147C9.56796 10.2332 9.68106 10.2766 9.79395 10.2766C9.90683 10.2766 10.0199 10.2337 10.1061 10.1475L12.4414 7.81242C12.5241 7.72966 12.5706 7.6174 12.5706 7.50038C12.5706 7.38339 12.5241 7.27112 12.4414 7.18837Z" fill="#E99B36" fill-opacity="1.000000" fill-rule="nonzero"/>
	<path id="Vector" d="M9.02344 11.5364C8.77974 11.5364 8.58398 11.734 8.58398 11.9778L8.58398 14.1211L0.878906 14.1211L0.878906 0.878906L8.58398 0.878906L8.58398 3.02309C8.58398 3.26688 8.77974 3.46448 9.02344 3.46448C9.26712 3.46448 9.46289 3.26688 9.46289 3.02309L9.46289 0.438187C9.46289 0.194382 9.26237 0 9.01869 0L0.440994 0C0.197311 0 0 0.194382 0 0.438187L0 14.5627C0 14.8065 0.197311 15 0.44101 15L9.01871 15C9.26239 15 9.46291 14.8065 9.46291 14.5627L9.46291 11.9778C9.46289 11.734 9.26712 11.5364 9.02344 11.5364Z" fill="#E99B36" fill-opacity="1.000000" fill-rule="nonzero"/>
</svg>
