<svg width="21" height="14" fill="none" xmlns="http://www.w3.org/2000/svg"><path d="M19.923 0H1.077A1.08 1.08 0 000 1.077v11.846A1.08 1.08 0 001.077 14h18.846A1.08 1.08 0 0021 12.923V1.077A1.08 1.08 0 0019.923 0zm-.404.808l-8.4 6.3a1.05 1.05 0 01-.619.185 1.05 1.05 0 01-.62-.185L1.481.808h18.038zm-4.487 6.715l4.577 5.654.015.015H1.376l.015-.015 4.577-5.654a.404.404 0 00-.628-.508L.808 12.614V1.312l8.588 6.442c.323.24.716.346 1.104.347.388 0 .78-.107 1.104-.347l8.588-6.442v11.302L15.66 7.015a.404.404 0 10-.628.508z" fill="#fff"/></svg>