<svg width="33" height="24" viewBox="0 0 33 24" fill="none" xmlns="http://www.w3.org/2000/svg">
<path d="M30.103 0H2.00687C1.47461 0 0.964158 0.210714 0.587798 0.585786C0.211437 0.960859 0 1.46957 0 2V22C0 22.5304 0.211437 23.0391 0.587798 23.4142C0.964158 23.7893 1.47461 24 2.00687 24H30.103C30.6353 24 31.1457 23.7893 31.5221 23.4142C31.8984 23.0391 32.1099 22.5304 32.1099 22V2C32.1099 1.46957 31.8984 0.960859 31.5221 0.585786C31.1457 0.210714 30.6353 0 30.103 0ZM28.5577 22H3.67257L10.6966 14.76L9.25166 13.37L2.00687 20.84V3.52L14.4795 15.89C14.8556 16.2625 15.3642 16.4716 15.8944 16.4716C16.4246 16.4716 16.9332 16.2625 17.3092 15.89L30.103 3.21V20.71L22.7177 13.35L21.3029 14.76L28.5577 22ZM3.32136 2H28.4774L15.8944 14.47L3.32136 2Z" fill="#E31E24"/>
</svg>
