<svg width="19" height="24" viewBox="0 0 19 24" fill="none" xmlns="http://www.w3.org/2000/svg">
<path d="M9.36355 24C7.67402 22.5638 6.10797 20.9893 4.68178 19.2929C2.54154 16.7454 1.17565e-06 12.9515 1.17565e-06 9.33619C-0.000927018 7.48983 0.54778 5.6847 1.57668 4.14924C2.60558 2.61378 4.06843 1.41701 5.78008 0.710405C7.49173 0.00379488 9.37526 -0.180898 11.1923 0.179701C13.0093 0.540299 14.6781 1.42998 15.9876 2.73615C16.8594 3.60112 17.5504 4.62983 18.0207 5.76272C18.4909 6.89562 18.731 8.1102 18.7271 9.33619C18.7271 12.9515 16.1856 16.7454 14.0453 19.2929C12.6191 20.9893 11.0531 22.5638 9.36355 24ZM9.36355 2.67083C7.59037 2.67294 5.89042 3.37586 4.63659 4.6254C3.38276 5.87494 2.67743 7.56908 2.6753 9.33619C2.6753 10.8906 3.38024 13.582 6.73507 17.5826C7.56191 18.5665 8.43924 19.5071 9.36355 20.4007C10.2879 19.5081 11.1657 18.5688 11.9934 17.5866C15.3469 13.5807 16.0518 10.8892 16.0518 9.33619C16.0497 7.56908 15.3443 5.87494 14.0905 4.6254C12.8367 3.37586 11.1367 2.67294 9.36355 2.67083ZM9.36355 13.3354C8.29925 13.3354 7.27854 12.9141 6.52597 12.1641C5.77339 11.4141 5.3506 10.3969 5.3506 9.33619C5.3506 8.27553 5.77339 7.25832 6.52597 6.50832C7.27854 5.75832 8.29925 5.33697 9.36355 5.33697C10.4279 5.33697 11.4486 5.75832 12.2011 6.50832C12.9537 7.25832 13.3765 8.27553 13.3765 9.33619C13.3765 10.3969 12.9537 11.4141 12.2011 12.1641C11.4486 12.9141 10.4279 13.3354 9.36355 13.3354Z" fill="#E31E24"/>
</svg>
