<svg width="11.325012" height="13.050003" viewBox="0 0 11.325 13.05" fill="none" xmlns="http://www.w3.org/2000/svg" xmlns:xlink="http://www.w3.org/1999/xlink">
	<desc>
			Created with Pixso.
	</desc>
	<defs/>
	<path id="Vector" d="M1.41248 4.25C1.41248 6.58749 3.32498 8.5 5.66248 8.5C7.99997 8.5 9.91248 6.58749 9.91248 4.25C9.91248 1.91251 7.99997 0 5.66248 0C3.32498 0 1.41248 1.91251 1.41248 4.25ZM8.91248 4.25C8.91248 6.03751 7.44998 7.5 5.66248 7.5C3.87497 7.5 2.41248 6.03751 2.41248 4.25C2.41248 2.46249 3.87497 1 5.66248 1C7.44998 1 8.91248 2.46249 8.91248 4.25Z" fill="#000000" fill-opacity="1.000000" fill-rule="nonzero"/>
	<path id="Vector" d="M0.712494 13.05C2.03751 11.725 3.78751 11 5.66251 11C7.53751 11 9.28751 11.725 10.6125 13.05L11.325 12.3375C9.8125 10.8375 7.79999 10 5.66251 10C3.52499 10 1.51251 10.8375 0 12.3375L0.712494 13.05Z" fill="#000000" fill-opacity="1.000000" fill-rule="nonzero"/>
</svg>
