<svg width="18.002441" height="20.000122" viewBox="0 0 18.0024 20.0001" fill="none" xmlns="http://www.w3.org/2000/svg" xmlns:xlink="http://www.w3.org/1999/xlink">
    <defs/>
    <path id="Vector" d="M4.48975 15.6073C2.84985 14.288 1.80029 12.2649 1.80029 9.99597C1.80029 6.64209 4.09692 3.83215 7.20093 3.03101L7.20093 1.17566C3.09229 2.0094 0 5.64172 0 9.99597C0 12.6868 1.1814 15.0996 3.05249 16.7487C4.50073 18.0977 5.40063 16.2974 4.48975 15.6073ZM14.874 3.17822C13.9519 2.34534 12.6018 3.69556 13.4871 4.36438C15.1421 5.68335 16.2024 7.71606 16.2024 9.99597C16.2024 13.3503 13.9053 16.1608 10.8015 16.9614L10.8015 18.8171C14.9102 17.9824 18.0024 14.3507 18.0024 9.99585C18.0024 7.26953 16.7896 4.82861 14.874 3.17822ZM7.99634 4.58594L10.9263 2.83142C11.3525 2.57605 11.3535 2.16028 10.9285 1.90308L7.97144 0.113403C7.54614 -0.143311 7.20288 0.050415 7.20483 0.547607L7.22095 4.14819C7.22217 4.64514 7.56958 4.84131 7.99634 4.58594ZM10.0315 15.4156L7.07397 17.2054C6.64893 17.4625 6.64966 17.8783 7.07642 18.1337L10.0061 19.8884C10.4324 20.1432 10.7805 19.9478 10.7827 19.4502L10.7981 15.8496C10.7998 15.3529 10.4561 15.1589 10.0315 15.4156Z" fill="#FFFFFF" fill-opacity="1.000000" fill-rule="nonzero"/>
</svg>
