<svg width="16.000031" height="9.128723" viewBox="0 0 16 9.12872" fill="none" xmlns="http://www.w3.org/2000/svg" xmlns:xlink="http://www.w3.org/1999/xlink">
	<desc>
			Created with Pixso.
	</desc>
	<defs/>
	<path id="Vector" d="M15.9152 8.24423C15.8958 8.20248 15.8777 8.16785 15.861 8.14011C15.5834 7.64014 15.0529 7.02646 14.2698 6.2989L14.2533 6.28226L14.245 6.27408L14.2366 6.2657L14.2282 6.2657C13.8728 5.92693 13.6478 5.69913 13.5535 5.5825C13.3811 5.36034 13.3425 5.13547 13.4367 4.90761C13.5033 4.73546 13.7534 4.3719 14.1865 3.81644C14.4143 3.52206 14.5947 3.28613 14.7279 3.10838C15.6888 1.83096 16.1053 1.01468 15.9775 0.65921L15.9279 0.576141C15.8946 0.526123 15.8085 0.480377 15.6698 0.438644C15.5308 0.397018 15.3531 0.390121 15.1365 0.417877L12.7373 0.434448C12.6985 0.420685 12.643 0.421967 12.5707 0.438644C12.4985 0.455338 12.4623 0.463715 12.4623 0.463715L12.4206 0.484573L12.3875 0.509644C12.3596 0.526215 12.3291 0.555359 12.2958 0.597031C12.2626 0.63855 12.2348 0.687271 12.2127 0.742798C11.9515 1.41479 11.6545 2.0396 11.3212 2.61714C11.1157 2.96153 10.927 3.25999 10.7546 3.5127C10.5825 3.76532 10.4381 3.95145 10.3216 4.07076C10.2048 4.19019 10.0995 4.28586 10.0049 4.35814C9.91046 4.43044 9.83835 4.46098 9.78845 4.44981C9.7384 4.43863 9.69128 4.42755 9.64667 4.41646C9.56897 4.36646 9.50647 4.29843 9.45935 4.21236C9.41202 4.12628 9.38016 4.01794 9.36349 3.88744C9.34692 3.75684 9.3371 3.6445 9.33432 3.55005C9.33173 3.45572 9.33292 3.32228 9.33853 3.15013C9.34433 2.97791 9.34692 2.86136 9.34692 2.80026C9.34692 2.58919 9.35104 2.36011 9.35928 2.11298C9.36768 1.86583 9.37448 1.67003 9.38019 1.52577C9.38583 1.38136 9.38846 1.22859 9.38846 1.06752C9.38846 0.906464 9.37866 0.780151 9.35928 0.688477C9.34015 0.596909 9.31076 0.508041 9.27203 0.421875C9.23309 0.3358 9.17609 0.269211 9.10126 0.221939C9.02631 0.174744 8.93311 0.137268 8.8222 0.109436C8.52783 0.0428162 8.15298 0.00679016 7.69748 0.00119019C6.66455 -0.00990295 6.00085 0.0567932 5.70648 0.201202C5.58987 0.262207 5.48434 0.345566 5.38995 0.451019C5.28998 0.573242 5.27603 0.639954 5.34821 0.650925C5.68149 0.700851 5.91742 0.820267 6.05627 1.00908L6.10632 1.10913C6.14523 1.18132 6.18411 1.30911 6.22299 1.49236C6.26184 1.6756 6.2869 1.8783 6.29794 2.10034C6.32565 2.50583 6.32565 2.85294 6.29794 3.14168C6.27011 3.43054 6.24387 3.65541 6.21881 3.81647C6.19373 3.97754 6.15628 4.10805 6.10632 4.20798C6.05627 4.30795 6.02298 4.36905 6.00629 4.39122C5.98962 4.41339 5.97574 4.42737 5.96472 4.43286C5.89252 4.46053 5.81744 4.47461 5.73975 4.47461C5.66193 4.47461 5.56757 4.43568 5.45651 4.35789C5.34549 4.28011 5.23029 4.17326 5.11084 4.03717C4.99142 3.90106 4.85675 3.71085 4.70673 3.46651C4.55685 3.22218 4.40134 2.9334 4.24026 2.60019L4.10703 2.35854C4.02371 2.20308 3.90991 1.97672 3.7655 1.67966C3.62103 1.38248 3.49332 1.09502 3.38229 0.817322C3.33792 0.700699 3.27124 0.611908 3.18237 0.550812L3.14069 0.525742C3.11298 0.503571 3.06848 0.480026 3.00745 0.454926C2.94632 0.429871 2.88254 0.411896 2.81583 0.400833L0.533264 0.417404C0.300018 0.417404 0.141754 0.470245 0.0584106 0.57579L0.0250549 0.625717C0.00839233 0.653519 0 0.697922 0 0.759048C0 0.82016 0.0166626 0.895142 0.0500183 0.983932C0.383209 1.76707 0.745575 2.52234 1.13708 3.24986C1.52859 3.97739 1.86884 4.56343 2.15753 5.00746C2.44632 5.45181 2.74066 5.87119 3.04059 6.26538C3.34052 6.65973 3.53903 6.91245 3.63617 7.02345C3.73343 7.13469 3.80981 7.21785 3.86533 7.27338L4.07364 7.47327C4.20691 7.60658 4.40265 7.76625 4.66089 7.95226C4.91922 8.13838 5.20517 8.32162 5.51895 8.50226C5.83279 8.6826 6.19791 8.82979 6.61447 8.9436C7.03101 9.05754 7.4364 9.10327 7.83075 9.08121L8.78876 9.08121C8.98306 9.06444 9.13028 9.00333 9.23032 8.89789L9.26346 8.85612C9.28577 8.82298 9.30661 8.77148 9.32587 8.70219C9.34537 8.63277 9.35504 8.5563 9.35504 8.47311C9.34937 8.23434 9.36755 8.01917 9.40909 7.82758C9.45062 7.63605 9.49796 7.49165 9.55087 7.39439C9.60376 7.29724 9.66348 7.21524 9.72992 7.14877C9.79648 7.08217 9.84393 7.04181 9.87177 7.02792C9.89944 7.01395 9.92151 7.00447 9.93817 6.99878C10.0715 6.95436 10.2283 6.99738 10.409 7.12801C10.5895 7.25851 10.7589 7.41966 10.9172 7.61119C11.0755 7.80289 11.2657 8.01796 11.4878 8.25673C11.7101 8.49557 11.9044 8.67313 12.0709 8.78993L12.2375 8.88989C12.3487 8.95659 12.4931 9.01768 12.6708 9.07321C12.8483 9.12871 13.0038 9.14259 13.1372 9.11485L15.2698 9.08159C15.4807 9.08159 15.6448 9.04666 15.7612 8.97737C15.8779 8.90796 15.9472 8.83148 15.9695 8.74829C15.9918 8.66501 15.993 8.57054 15.9738 8.4649C15.954 8.35954 15.9346 8.28587 15.9152 8.24423Z" fill="#FFFFFF" fill-opacity="1.000000" fill-rule="nonzero"/>
</svg>
