<svg width="57" height="38" fill="none" xmlns="http://www.w3.org/2000/svg"><path d="M55.768 20.768a2.5 2.5 0 000-3.536l-15.91-15.91a2.5 2.5 0 00-3.536 3.536L50.464 19 36.323 33.142a2.5 2.5 0 003.536 3.536l15.91-15.91zM0 21.5h54v-5H0v5z" fill="#263238"/><path d="M55.768 20.768a2.5 2.5 0 000-3.536l-15.91-15.91a2.5 2.5 0 00-3.536 3.536L50.464 19 36.323 33.142a2.5 2.5 0 003.536 3.536l15.91-15.91zM0 21.5h54v-5H0v5z" fill="#263238"/><path d="M55.768 20.768a2.5 2.5 0 000-3.536l-15.91-15.91a2.5 2.5 0 00-3.536 3.536L50.464 19 36.323 33.142a2.5 2.5 0 003.536 3.536l15.91-15.91zM0 21.5h54v-5H0v5z" fill="#263238"/></svg>