<svg width="57" height="38" fill="none" xmlns="http://www.w3.org/2000/svg"><path d="M1.232 17.232a2.5 2.5 0 000 3.536l15.91 15.91a2.5 2.5 0 003.536-3.536L6.536 19 20.678 4.858a2.5 2.5 0 10-3.536-3.536l-15.91 15.91zM57 16.5H3v5h54v-5z" fill="#263238"/><path d="M1.232 17.232a2.5 2.5 0 000 3.536l15.91 15.91a2.5 2.5 0 003.536-3.536L6.536 19 20.678 4.858a2.5 2.5 0 10-3.536-3.536l-15.91 15.91zM57 16.5H3v5h54v-5z" fill="#263238"/><path d="M1.232 17.232a2.5 2.5 0 000 3.536l15.91 15.91a2.5 2.5 0 003.536-3.536L6.536 19 20.678 4.858a2.5 2.5 0 10-3.536-3.536l-15.91 15.91zM57 16.5H3v5h54v-5z" fill="#263238"/></svg>