<svg width="53" height="53" fill="none" xmlns="http://www.w3.org/2000/svg"><path d="M49.843 39.208l2.941-7.354-1.582-.633-3.195 7.987h-.275V28.98h-1.705V15.342h-3.41v-3.41h-1.704v3.41h-1.705v-5.114h-1.705v5.114H35.8v-3.41h-1.705v3.41h-3.41V25.57h-3.409v4.372a15.144 15.144 0 00-7.863-5.087l-.387-1.16A4.265 4.265 0 0021.8 21.31h.361c1.88 0 3.41-1.53 3.41-3.41v-4.261c.94 0 1.704-.765 1.704-1.705v-1.705c0-.94-.764-1.704-1.704-1.704h-.149A10.163 10.163 0 0015.342 0a10.163 10.163 0 00-10.08 8.524h-.148c-.94 0-1.705.764-1.705 1.704v1.705c0 .94.765 1.705 1.705 1.705v4.261c0 1.88 1.53 3.41 3.41 3.41h.36a4.265 4.265 0 002.775 2.386l-.387 1.16A15.076 15.076 0 000 39.5v.56c0 3.635 2.083 6.786 5.114 8.342v4.444h25.57v-6.82h2.644a4.269 4.269 0 004.175 3.41 4.27 4.27 0 004.176-3.41h4.278a6.95 6.95 0 006.878-5.825l.165-.993h-3.157zm-10.635 0v-8.523h6.819v8.523h-6.819zM32.39 17.047h11.933V28.98h-5.114v-3.41H32.39v-8.523zm5.114 10.228v11.933H28.98V27.275h8.523zm-10.228 5.69v6.243H27l-3.196-7.988-1.582.633 2.942 7.355h-3.156l.165.993a6.957 6.957 0 001.693 3.516v7.424h-4.262v-1.705a2.56 2.56 0 002.557-2.557 2.56 2.56 0 00-2.557-2.557v-17.62a13.435 13.435 0 017.671 6.263zm-9.99-9.1l.526 1.58-2.469 3.703-2.469-3.704.527-1.578h3.885zm.614 8.651l-1.502-1.877 1.502-2.253v4.13zm-5.114 0v-4.13l1.502 2.253-1.502 1.877zm0 2.729l2.557-3.197 2.557 3.197v7.523a2.55 2.55 0 00-.852-.15h-.998a2.54 2.54 0 00-1.809.749l-.874.874-.58-.13v-8.866zm1.705 10.282l.955-.955a.849.849 0 01.604-.25h.998c.47 0 .852.383.852.853v.852h1.705a.853.853 0 010 1.705H14.49v-2.205zm3.41 3.91v1.704h-5.115v-1.705H17.9zm4.261-29.833v-3.41c.94 0 1.705.765 1.705 1.705 0 .94-.765 1.705-1.705 1.705zm1.705-4.64a3.374 3.374 0 00-1.705-.474v-.852h1.705v1.326zm-.174-6.44H17.9V2.095a8.45 8.45 0 015.793 6.428zm-7.497-6.777v6.777H14.49V1.747a8.79 8.79 0 011.705 0zm-3.41.348v6.429H6.993a8.45 8.45 0 015.792-6.429zm-7.672 8.133H25.57v1.705H5.114v-1.705zm3.41 3.41v.852c-.623 0-1.2.18-1.704.474v-1.326h1.705zM6.82 17.899c0-.94.764-1.704 1.705-1.704v3.41c-.94 0-1.705-.765-1.705-1.706zm3.41 1.705v-5.966h10.227v5.966a2.56 2.56 0 01-2.557 2.557h-5.114a2.56 2.56 0 01-2.557-2.557zM1.704 40.06v-.56a13.371 13.371 0 019.376-12.81v17.044l-.925-.205a4.238 4.238 0 01-3.337-4.162V35.8H5.114v3.569a5.93 5.93 0 004.672 5.824l3 .666v1.874h-3.41c-4.23 0-7.671-3.442-7.671-7.672zm5.114 9.013c.814.231 1.67.363 2.557.363h1.705v1.705H6.819v-2.068zm18.752 2.068v-6.04c1.008.58 2.173.91 3.409.923v5.117h-3.41zm11.932-3.41a2.56 2.56 0 01-2.557-2.556c0-.47.383-.853.853-.853h3.41c.469 0 .851.383.851.853a2.56 2.56 0 01-2.557 2.557zm8.453-3.409h-4.349a2.554 2.554 0 00-2.4-1.705h-3.41a2.556 2.556 0 00-2.4 1.705H29.05a5.25 5.25 0 01-4.93-3.41h26.766a5.245 5.245 0 01-4.929 3.41z" fill="#D4C17F"/><path d="M40.913 18.752h1.705v1.704h-1.705v-1.704zm-3.41 0h1.705v1.704h-1.705v-1.704zm-3.409 0h1.705v1.704h-1.705v-1.704zm6.819 3.409h1.705v1.705h-1.705V22.16zm-6.819 0h1.705v1.705h-1.705V22.16zm3.409 0h1.705v1.705h-1.705V22.16zm3.41 3.409h1.705v1.705h-1.705v-1.704zm-10.228 3.41h1.704v8.523h-1.704V28.98zm3.409 0h1.705v8.523h-1.705V28.98zm6.819 3.41h3.41v1.704h-3.41v-1.705zm0 3.409h3.41v1.704h-3.41V35.8z" fill="#D4C17F"/></svg>