<svg width="55" height="55" fill="none" xmlns="http://www.w3.org/2000/svg"><path d="M27.5 14.877a3.563 3.563 0 100 7.125 3.563 3.563 0 000-7.125zm0 5.344a1.781 1.781 0 110-3.563 1.781 1.781 0 010 3.563zm-.89 7.125h1.78v1.781h-1.78v-1.781zm0 3.562h1.78v1.782h-1.78v-1.782zm0 3.562h1.78v1.782h-1.78v-1.781zm0 3.563h1.78v1.782h-1.78v-1.782zm0 3.563h1.78v1.781h-1.78v-1.781zm0 3.562h1.78v1.782h-1.78v-1.782zm-3.563-17.812h1.781v1.781h-1.781v-1.781zm0 3.562h1.781v1.782h-1.781v-1.782zm0 3.562h1.781v1.782h-1.781v-1.781zm0 3.563h1.781v1.782h-1.781v-1.782zm0 3.563h1.781v1.781h-1.781v-1.781zm0 3.562h1.781v1.782h-1.781v-1.782zm-3.563-17.812h1.782v1.781h-1.782v-1.781zm0 3.562h1.782v1.782h-1.782v-1.782zm0 3.562h1.782v1.782h-1.782v-1.781zm0 3.563h1.782v1.782h-1.782v-1.782zm0 3.563h1.782v1.781h-1.782v-1.781zm0 3.562h1.782v1.782h-1.782v-1.782zm10.688-17.812h1.781v1.781h-1.781v-1.781zm0 3.562h1.781v1.782h-1.781v-1.782zm0 3.562h1.781v1.782h-1.781v-1.781zm0 3.563h1.781v1.782h-1.781v-1.782zm0 3.563h1.781v1.781h-1.781v-1.781zm0 3.562h1.781v1.782h-1.781v-1.782zm3.562-17.812h1.782v1.781h-1.782v-1.781zm0 3.562h1.782v1.782h-1.782v-1.782zm0 3.562h1.782v1.782h-1.782v-1.781zm0 3.563h1.782v1.782h-1.782v-1.782zm0 3.563h1.782v1.781h-1.782v-1.781zm0 3.562h1.782v1.782h-1.782v-1.782zM26.61 3.299h1.78v4.453h-1.78V3.299zM23.047.627h1.781v3.562h-1.781V.627zm0 5.343h1.781v1.782h-1.781V5.971zm7.125-1.78h1.781v3.562h-1.781V4.189zm0-3.563h1.781v1.781h-1.781V.627zm20.484 26.719a3.567 3.567 0 00-2.655 1.187.89.89 0 001.327 1.188 1.782 1.782 0 111.328 2.969h-3.562a.89.89 0 100 1.78h3.562a3.562 3.562 0 100-7.124zm-1.781 9.797a.89.89 0 00-.89-.891H41.75a.89.89 0 100 1.781h6.234a.89.89 0 00.891-.89zm4.453-.891h-2.672a.89.89 0 100 1.781h2.672a.89.89 0 100-1.781zm-9.797-3.562H41.75a.89.89 0 100 1.78h1.781a.89.89 0 100-1.78zm7.125 7.125h-1.78a.89.89 0 100 1.78h1.78a1.781 1.781 0 11-1.328 2.97.887.887 0 00-.961-.253.89.89 0 00-.366 1.44 3.562 3.562 0 102.655-5.938zm-8.906 0a.89.89 0 100 1.78h3.563a.89.89 0 100-1.78H41.75zM.781 30.908a3.567 3.567 0 003.563 3.563h3.562a.89.89 0 100-1.782H4.344a1.781 1.781 0 111.328-2.968.89.89 0 001.327-1.188A3.563 3.563 0 00.78 30.908zm12.469 5.344H7.016a.89.89 0 100 1.781h6.234a.89.89 0 100-1.781zM1.672 38.033h2.672a.89.89 0 100-1.781H1.672a.89.89 0 100 1.781zM13.25 32.69h-1.781a.89.89 0 100 1.78h1.781a.89.89 0 100-1.78zM6.999 45.752a.89.89 0 00-1.327-1.188 1.78 1.78 0 11-1.328-2.968h1.781a.89.89 0 100-1.781H4.344a3.562 3.562 0 102.655 5.937zm6.251-5.937H9.688a.89.89 0 100 1.78h3.562a.89.89 0 100-1.78z" fill="#D4C17F"/><path d="M35.516 54.065v-1.782h2.226a1.338 1.338 0 001.336-1.336V11.314a1.783 1.783 0 00-1.781-1.78H17.703a1.784 1.784 0 00-1.781 1.78v39.633a1.337 1.337 0 001.336 1.336h2.226v1.782h1.782v-1.782h12.468v1.782h1.782zm-17.813-3.563V11.314h19.594v39.188H17.703z" fill="#D4C17F"/></svg>