<svg width="57" height="52" fill="none" xmlns="http://www.w3.org/2000/svg"><path d="M56.974.935a.925.925 0 00-.039-.196.919.919 0 00-.096-.176.915.915 0 00-.061-.113c-.01-.01-.023-.014-.032-.025A.944.944 0 0056.59.3a.939.939 0 00-.14-.094.937.937 0 00-.163-.047.93.93 0 00-.196-.04c-.014 0-.026-.008-.04-.008a.884.884 0 00-.13.026.912.912 0 00-.193.04.918.918 0 00-.175.095.905.905 0 00-.114.062L.589 46.357l-.256.218c-.01.009-.014.02-.023.03a.938.938 0 00-.123.157.937.937 0 00-.095.14.962.962 0 00-.044.16.937.937 0 00-.04.2c-.001.013-.008.023-.008.036v8.331a.95.95 0 00.95.95h55.1a.95.95 0 00.95-.95V1.062a.912.912 0 00-.026-.127zM55.1 54.679H1.9v-2.85h53.2v2.85zm0-4.75H6.685l2.264-1.9H55.1v1.9zm-43.887-3.8L27.55 32.422V46.13H11.213zm18.237 0V30.826l1.399-1.173.501.5V46.13h-1.9zm21.85-1.402v1.403h-1.288L32.31 28.427l1.463-1.227L51.3 44.727zM35.233 25.974L51.3 12.49v29.55L35.233 25.974zm12.093 20.155H33.25V32.055L47.326 46.13zm7.774 0h-1.9V10.898l1.9-1.595V46.13zm0-39.307L27.833 29.703l-.006.005L7.934 46.402l-.01.009-4.194 3.518H1.9v-2.188L55.1 3.1v3.723z" fill="#D4C17F"/></svg>