<svg width="57" height="57" fill="none" xmlns="http://www.w3.org/2000/svg"><path d="M33.741 11.887c-1.024-.588-2.045-1.182-3.068-1.774.558-1.31 1.135-2.66 1.66-4.014a1.678 1.678 0 00-.185-1.561c-.643-.93-1.878-.985-2.71-.194-2.19 2.083-4.351 4.119-6.53 6.183a1.78 1.78 0 00-.569 1.484c.059.54.372 1.018.86 1.312 1.04.628 2.09 1.22 3.129 1.814-.518 1.22-1.155 2.7-1.661 4.008-.322.83.046 1.753.856 2.145.636.308 1.369.248 2.037-.388 2.129-2.026 4.395-4.156 6.532-6.184.425-.403.632-.948.566-1.494-.065-.552-.4-1.04-.917-1.337zm-.798 1.62c-2.286 2.168-6.453 6.18-6.673 6.288-.016-.006-.056-.021-.046-.048.578-1.509 1.295-3.14 1.884-4.535.165-.392.1-.921-.42-1.22-1.207-.695-2.427-1.375-3.625-2.099-.09-.053-.086-.079-.006-.154 1.433-1.357 6.168-5.955 6.658-6.285.044.009.06.033.06.042-.59 1.522-1.248 3.041-1.881 4.536-.2.472-.033.963.416 1.222 1.2.693 2.398 1.39 3.599 2.081.122.07.127.083.034.171zm18.212 29.73a.835.835 0 00.835-.834V24.016l3.014 1.455c.433.21.936.182 1.344-.075.408-.256.652-.697.652-1.179V19.22c0-.532-.31-1.024-.787-1.253l-15.252-7.365C39.991 4.599 34.773 0 28.5 0c-6.96 0-12.624 5.663-12.624 12.624 0 1.39.227 2.728.644 3.98l-14.85 7.17v-4.38l11.908-5.75a.835.835 0 00-.726-1.503L.79 17.966c-.48.23-.789.722-.789 1.254v4.997c0 .482.244.923.652 1.18.409.256.911.283 1.344.074l3.014-1.455V51.99H1.503C.674 51.99 0 52.664 0 53.493v2.004C0 56.326.674 57 1.503 57h53.994c.829 0 1.503-.674 1.503-1.503v-2.004c0-.829-.674-1.503-1.503-1.503H51.99v-6.248a.835.835 0 10-1.67 0v6.248H29.335v-6.158c3.121-.41 5.539-3.086 5.539-6.318v-5.463a1.59 1.59 0 00-1.589-1.589H31.84V29.57a.835.835 0 10-1.67 0v2.892h-3.34V29.57a.835.835 0 10-1.67 0v2.892h-1.445a1.59 1.59 0 00-1.589 1.589v5.463c0 3.232 2.418 5.907 5.539 6.318v6.158H6.68V23.21l10.473-5.058c2.054 4.198 6.368 7.095 11.347 7.095 4.979 0 9.293-2.898 11.347-7.095L50.32 23.21v19.193c0 .46.374.835.835.835zm-27.36-3.723v-5.382h9.41v5.383a4.71 4.71 0 01-4.705 4.703 4.71 4.71 0 01-4.704-4.704zM55.33 53.66v1.67H1.67v-1.67h53.66zM28.5 23.577c-6.04 0-10.954-4.913-10.954-10.953 0-6.04 4.914-10.954 10.954-10.954 6.04 0 10.954 4.914 10.954 10.954 0 6.04-4.914 10.953-10.954 10.953zm11.98-6.973c.417-1.252.644-2.59.644-3.98l-.001-.09 14.207 6.86v4.38l-14.85-7.17z" fill="#D4C17F"/></svg>