<svg width="31" height="57" fill="none" xmlns="http://www.w3.org/2000/svg"><path d="M12.995 51.155h1.67v1.67h-1.67v-1.67zm8.001-29.945l3.34-6.412 1.481.771-3.34 6.413-1.481-.772zm-1.543 2.962l.772-1.48 1.481.77-.771 1.482-1.482-.771zM2.475 13.99V8.35h12.19V6.68H2.475V1.67h3.34V0H.804v14.399l4.551 8.736 1.481-.771-4.362-8.374z" fill="#D4C17F"/><path d="M30.195 0H7.485v1.67h21.04v5.01h-12.19v1.67h12.19v5.64l-9.357 17.96h-7.336l-4.223-8.106-1.481.771 4.34 8.333L8.82 48.606v4.22A4.18 4.18 0 0012.995 57h5.01a4.18 4.18 0 004.175-4.175v-4.219l-.577-5.475-1.66.175.567 5.388v4.131a2.508 2.508 0 01-2.505 2.505h-5.01a2.508 2.508 0 01-2.505-2.505v-4.13l1.235-11.734h2.94v-1.67h-2.764l.176-1.67h6.846l.176 1.67h-2.764v1.67h2.94l.493 4.684 1.66-.175-.896-8.521 9.663-18.55V0z" fill="#D4C17F"/><path d="M25.186 3.34h1.67v1.67h-1.67V3.34zm-6.68 0h5.01v1.67h-5.01V3.34z" fill="#D4C17F"/></svg>