<svg width="37" height="55" fill="none" xmlns="http://www.w3.org/2000/svg"><path d="M18.5 20.19a3.822 3.822 0 110-7.644 3.822 3.822 0 010 7.644zm0-6.104a2.282 2.282 0 100 4.564 2.282 2.282 0 000-4.564zM5.655 50.382a3.908 3.908 0 01-1.315-.232 3.875 3.875 0 01-2.342-4.953l8.973-25.804a.769.769 0 011.24-.323.772.772 0 01.215.83L3.451 45.709a2.34 2.34 0 002.312 3.13 2.332 2.332 0 002.082-1.55l8.277-23.806a.77.77 0 011.454.505L9.299 47.8a3.872 3.872 0 01-3.644 2.582zm25.692 0a3.88 3.88 0 01-3.643-2.573l-8.28-23.82a.77.77 0 011.455-.506l8.277 23.813a2.336 2.336 0 004.396-1.578l-8.977-25.805a.77.77 0 111.454-.506l8.975 25.795a3.885 3.885 0 01-3.657 5.18z" fill="#D4C17F"/><path d="M34.13 54.46a.77.77 0 01-.714-.481l-1.73-4.263a.77.77 0 011.428-.58l1.73 4.264a.77.77 0 01-.713 1.06zm-31.259 0a.77.77 0 01-.713-1.06l1.73-4.263a.77.77 0 111.428.58l-1.73 4.262a.77.77 0 01-.715.48zM18.5 24.688a8.319 8.319 0 118.32-8.319 8.33 8.33 0 01-8.32 8.32zm0-15.1a6.778 6.778 0 106.779 6.778A6.788 6.788 0 0018.5 9.587z" fill="#D4C17F"/><path d="M20.895 9.976a.77.77 0 01-.77-.77V3.698a1.625 1.625 0 00-3.25 0v5.503a.77.77 0 01-1.54 0V3.7a3.165 3.165 0 116.33 0v5.503a.77.77 0 01-.77.774zM35.48 37.59h-4.207a.77.77 0 110-1.54h4.207a.77.77 0 110 1.54zm-29.753 0H1.52a.77.77 0 110-1.54h4.207a.77.77 0 110 1.54zm18.969 0H12.304a.77.77 0 110-1.54h12.392a.77.77 0 110 1.54z" fill="#D4C17F"/></svg>