<svg width="57" height="48" fill="none" xmlns="http://www.w3.org/2000/svg"><path d="M5.605 38.202a2.853 2.853 0 100 5.705 2.853 2.853 0 000-5.705zm0 3.803a.95.95 0 110-1.901.95.95 0 010 1.901zm7.607-3.803a2.853 2.853 0 100 5.705 2.853 2.853 0 000-5.705zm0 3.803a.95.95 0 110-1.901.95.95 0 010 1.901zm7.607-3.803a2.853 2.853 0 100 5.705 2.853 2.853 0 000-5.705zm0 3.803a.95.95 0 110-1.901.95.95 0 010 1.901zm4.754-.95a2.853 2.853 0 105.705 0 2.853 2.853 0 00-5.705 0zm3.803 0a.95.95 0 11-1.902 0 .95.95 0 011.902 0z" fill="#D4C17F"/><path fill-rule="evenodd" clip-rule="evenodd" d="M18.917 11.578a.95.95 0 00.672-.278l.95-.951a.95.95 0 00-1.344-1.345l-.95.951a.95.95 0 00.672 1.623zm5.426-.278a.951.951 0 00-1.345-1.345l-4.754 4.755a.95.95 0 101.345 1.344l4.754-4.754z" fill="#D4C17F"/><path d="M47.491 23.988V8.475l2.46-1.312A3.805 3.805 0 1046.367.448L29.33 9.535l-1.384-2.967a2.863 2.863 0 00-2.584-1.646h-7.347a2.853 2.853 0 00-2.853 2.853v11.41H3.752A2.853 2.853 0 00.9 22.038v7.607a2.853 2.853 0 002.852 2.852h1.902v1.978a6.656 6.656 0 00.95 13.236h43.74a.951.951 0 000-1.902h-16.27a6.643 6.643 0 00-3.698-11.334v-1.978h2.853a2.853 2.853 0 002.852-2.853v-7.606a2.853 2.853 0 00-2.21-2.774l-1.317-2.822L45.59 9.486v14.502a10.46 10.46 0 101.901 0zM17.064 7.775a.95.95 0 01.951-.95h7.347a.956.956 0 01.862.548l4.24 9.088v.015l.007.01 1.265 2.7h-3.262v-1.902a.95.95 0 00-1.901 0v1.901H24.67v-1.901a.95.95 0 00-1.902 0v1.901h-5.705V7.775zm17.115 33.28a4.76 4.76 0 01-4.754 4.754H6.605a4.754 4.754 0 110-9.509h22.82a4.76 4.76 0 014.754 4.755zm-5.705-6.656H7.556v-1.902h20.918v1.902zm5.705-7.607h-4.754V24.89h4.754v1.902zm0-3.804h-4.754c-1.05 0-1.902.852-1.902 1.902v1.902c0 1.05.852 1.902 1.902 1.902h4.754v.95a.95.95 0 01-.95.951H3.752a.95.95 0 01-.95-.95v-7.607a.95.95 0 01.95-.951h.951v2.852a.95.95 0 001.902 0v-2.852h1.901v2.852a.95.95 0 001.902 0v-2.852h1.902v2.852a.95.95 0 001.901 0v-2.852h19.017a.95.95 0 01.951.95v.951zm-4.043-11.727l17.128-9.135a1.903 1.903 0 111.791 3.36l-17.306 9.23-1.613-3.455zM46.54 42.956a8.558 8.558 0 110-17.115 8.558 8.558 0 018.558 8.558 8.567 8.567 0 01-8.558 8.557z" fill="#D4C17F"/><path fill-rule="evenodd" clip-rule="evenodd" d="M55.049 45.809h-1.902a.95.95 0 000 1.901h1.902a.95.95 0 000-1.901z" fill="#D4C17F"/></svg>