<svg width="57" height="55" fill="none" xmlns="http://www.w3.org/2000/svg"><path d="M41.041 7.278h11.557c.75 0 1.432-.31 1.928-.805a2.716 2.716 0 000-3.863 2.722 2.722 0 00-1.928-.805H34.739v22.05h5.469v-5.564a.835.835 0 111.67 0v19.793a2.48 2.48 0 01-.736 1.765 2.48 2.48 0 01-1.764.735h-7.48v2.215h3.949c1.66 0 3.165.679 4.26 1.774a6.014 6.014 0 011.77 4.26 6.02 6.02 0 01-1.77 4.26 6.02 6.02 0 01-4.26 1.771h-9.37a.835.835 0 110-1.67h9.37a4.362 4.362 0 003.08-1.28 4.363 4.363 0 001.28-3.08c0-1.2-.491-2.292-1.28-3.08a4.35 4.35 0 00-3.08-1.282h-22.52c-1.2 0-2.288.49-3.08 1.281a4.338 4.338 0 00-1.281 3.08 4.35 4.35 0 001.28 3.08 4.358 4.358 0 003.08 1.282h9.37a.835.835 0 010 1.67h-9.37a6.014 6.014 0 01-4.26-1.771 6.02 6.02 0 01-1.77-4.26c0-1.66.679-3.17 1.77-4.261a6.003 6.003 0 014.26-1.774h3.949v-2.215H2.499a2.48 2.48 0 01-1.764-.735A2.48 2.48 0 010 38.085v-11.73c0-.688.28-1.313.735-1.768a2.49 2.49 0 011.764-.732h16.975L15.83 8.3a.836.836 0 01.81-1.022h16.426V.973c0-.461.376-.837.837-.837h18.695c1.212 0 2.313.496 3.111 1.294.796.8 1.291 1.9 1.291 3.112a4.402 4.402 0 01-1.29 3.111 4.398 4.398 0 01-2.28 1.212v5.554c.266-.016.534.013.787.082a2.481 2.481 0 011.517 1.162 2.504 2.504 0 01-.912 3.414l-1.391.802v1.758c.265-.016.533.012.786.082a2.482 2.482 0 011.517 1.161 2.49 2.49 0 01.25 1.897 2.493 2.493 0 01-1.165 1.518l-1.388.801v1.758a2.53 2.53 0 01.786.082c.621.167 1.265.631 1.549 1.218.319.584.379 1.244.218 1.84-.167.625-.64 1.215-1.209 1.543l-1.344.776v1.758c.265-.012.533.016.786.082.621.167 1.265.631 1.549 1.221.319.581.379 1.24.218 1.837a2.488 2.488 0 01-1.162 1.518l-1.391.805v4.137c0 .086-.016.17-.041.256l-1.667 5.144a.832.832 0 01-1.584.006l-1.644-5.084a.837.837 0 01-.066-.322V44.11a2.532 2.532 0 01-.786-.079c-.603-.164-1.31-.663-1.562-1.25a2.48 2.48 0 01-.205-1.81c.164-.613.656-1.225 1.215-1.547l1.338-.774v-1.757a2.498 2.498 0 01-2.304-1.244 2.501 2.501 0 01.915-3.414l1.389-.802v-1.758a2.441 2.441 0 01-.786-.082 2.485 2.485 0 01-1.518-1.164 2.495 2.495 0 01.915-3.412l1.389-.801v-1.758a2.504 2.504 0 01-2.304-1.247 2.495 2.495 0 01.915-3.41l1.389-.803v-8.05h-6.552v5.564c0 .46-.372.833-.836.833a.832.832 0 01-.833-.833V8.114a.86.86 0 01.235-.578.865.865 0 01.598-.258zM18.089 49.667a.835.835 0 010-1.67H20.2a.835.835 0 010 1.67h-2.11zm10.884 0a.835.835 0 110-1.67h2.108a.835.835 0 110 1.67h-2.108zm-5.443 0a.835.835 0 010-1.67h2.111a.835.835 0 110 1.67H23.53zM3.45 31.186a.837.837 0 011.672-.001v2.067c0 .46-.376.836-.836.836a.838.838 0 01-.837-.836v-2.067zm6.664 0a.835.835 0 111.67 0v2.066a.835.835 0 11-1.67 0v-2.067zm-3.332 0a.835.835 0 111.67 0v2.066a.835.835 0 11-1.67 0v-2.067zm26.284-1.165h-2.278a.835.835 0 110-1.67h2.278v-2.827h-7.305v9.158h7.305v-4.661zm1.673-4.497v9.99a.837.837 0 01-.836.837h-8.978a.835.835 0 01-.834-.836v-9.991H2.5a.824.824 0 00-.583.246.818.818 0 00-.247.584v1.098h10.743a2.82 2.82 0 012.821 2.821v3.891c0 .776-.316 1.483-.827 1.991a2.818 2.818 0 01-1.994.83H1.669v1.098a.82.82 0 00.247.584.823.823 0 00.583.246h36.879a.823.823 0 00.584-.246.818.818 0 00.246-.584v-12.56h-5.469zM31.406 14.51a.835.835 0 01-1.669 0v-2.234h-7.842l1.934 8.246h5.908V18.29a.835.835 0 111.67 0v3.068c0 .46-.376.833-.837.833h-7.4a.832.832 0 01-.815-.644l-2.313-9.871a.836.836 0 01.802-1.07h9.726c.46 0 .836.376.836.836v3.068zm-10.218 9.344h11.878V8.947H17.694l3.494 14.908zm28.077-18.48a.835.835 0 110-1.67h3.333a.835.835 0 010 1.67h-3.333zm2.496 3.572h-1.66v7.085l1.66-.96V8.948zm0 36.601v-3.052l-1.66.96v2.092l.83 2.569.83-2.569zm2.225-6.261a.83.83 0 00.388-.505.851.851 0 00-.063-.603c-.13-.211-.28-.35-.523-.413a.818.818 0 00-.632.079l-5.282 3.048a.832.832 0 00-.386.508.822.822 0 00.587 1.016.81.81 0 00.628-.078c1.761-1.017 3.522-2.036 5.283-3.052zm-2.225-2.56v-1.45l-1.66.958v1.452l1.66-.96zm2.184-4.629c.221-.148.357-.262.43-.533a.851.851 0 00-.064-.603c-.13-.211-.28-.35-.523-.413-.408-.11-.53.047-.827.192l-5.037 2.907c-.224.151-.36.249-.435.536-.076.284-.013.436.107.679.28.42.773.45 1.186.214 1.72-.994 3.44-1.988 5.163-2.979zm.044-7.246a.831.831 0 00.303-1.136.835.835 0 00-.505-.388c-.3-.079-.482-.003-.722.136-1.733.997-3.462 1.998-5.191 2.995a.827.827 0 00-.386.508c-.072.265-.019.432.101.666a.844.844 0 001.08.29l5.32-3.07zm-3.888 4.166v1.449l1.66-.957V28.06l-1.66.96zm3.885-11.383a.828.828 0 00.388-.508.824.824 0 00-.082-.628.835.835 0 00-1.136-.306l-5.282 3.048a.829.829 0 00-.386.505.828.828 0 00.08.635.846.846 0 001.108.322l5.31-3.068zm-3.885 4.169v1.445l1.66-.96v-1.444l-1.66.959zM1.67 35.317h10.743a1.155 1.155 0 001.152-1.152v-3.89c0-.316-.13-.604-.338-.812a1.147 1.147 0 00-.814-.34H1.669v6.194zm17.275 7.482H30.23v-2.215H18.944V42.8zm16.903 3.254a2.777 2.777 0 110 5.557 2.782 2.782 0 01-2.78-2.777 2.777 2.777 0 012.78-2.78zm.782 1.995a1.113 1.113 0 00-.782-.326 1.12 1.12 0 00-.786.325 1.12 1.12 0 00-.325.786 1.112 1.112 0 001.11 1.108c.307 0 .582-.123.783-.325a1.107 1.107 0 000-1.568zm-23.302-1.995a2.77 2.77 0 011.963.814c.505.502.814 1.2.814 1.966 0 .767-.31 1.462-.814 1.963a2.769 2.769 0 01-1.963.814 2.782 2.782 0 01-1.966-.814 2.766 2.766 0 01-.811-1.963 2.774 2.774 0 012.777-2.78zm.783 1.995a1.107 1.107 0 10-1.566 1.568c.2.202.477.325.783.325.306 0 .584-.123.783-.325a1.106 1.106 0 000-1.568z" fill="#D4C17F"/></svg>