<svg width="495" height="394" viewBox="0 0 495 394" fill="none" xmlns="http://www.w3.org/2000/svg">
<path opacity="0.3" d="M219.679 1C145.608 92.4991 319.091 124.607 457.938 184.41C499.08 202.13 503.005 231.407 459.7 249.116C366.576 287.199 13.4953 231.798 35.892 281.999C59.0233 333.847 357.536 406.389 370.993 411.351C489.14 454.915 527.619 565.437 462.548 626.032C416.247 669.148 109.27 654.615 12.7068 640.256C-619.647 546.23 -334.704 557.442 -1045.03 528.244C-1099.41 526.008 -1156.4 524.865 -1208.62 532.08C-1262.41 539.511 -1260.7 569.994 -1242.65 586.475C-1182.84 641.089 -915.084 733.724 -987.139 805.514C-1009.25 827.542 -1061.06 841.455 -1084.39 863.224C-1102.66 880.275 -1100.64 900.408 -1108.76 919" stroke="white" stroke-width="2" stroke-dasharray="10 10"/>
</svg>
