<svg width="495" height="394" fill="none" xmlns="http://www.w3.org/2000/svg"><path opacity=".3" d="M219.679 1c-74.071 91.5 99.412 123.607 238.259 183.41 41.142 17.72 45.067 46.997 1.762 64.706-93.124 38.083-446.205-17.318-423.808 32.883 23.131 51.848 321.644 124.39 335.101 129.352 118.147 43.564 156.626 154.086 91.555 214.681-46.301 43.116-353.278 28.583-449.841 14.224-632.354-94.026-347.411-82.814-1057.737-112.012-54.38-2.236-111.37-3.379-163.59 3.836-53.79 7.431-52.08 37.914-34.03 54.395 59.81 54.614 327.566 147.249 255.511 219.039-22.111 22.028-73.921 35.941-97.251 57.71-18.27 17.051-16.25 37.184-24.37 55.776" stroke="#fff" stroke-width="2" stroke-dasharray="10 10"/></svg>