<svg width="22" height="22" viewBox="0 0 22 22" fill="none" xmlns="http://www.w3.org/2000/svg">
<path d="M21 6.55556V15.4444C21 16.9179 20.4147 18.3309 19.3728 19.3728C18.3309 20.4147 16.9179 21 15.4444 21H6.55556C5.08213 21 3.66905 20.4147 2.62718 19.3728C1.58532 18.3309 1 16.9179 1 15.4444V6.55556C1 5.08213 1.58532 3.66905 2.62718 2.62718C3.66905 1.58532 5.08213 1 6.55556 1H15.4444C16.9179 1 18.3309 1.58532 19.3728 2.62718C20.4147 3.66905 21 5.08213 21 6.55556Z" stroke="white" stroke-width="1.5" stroke-linecap="round" stroke-linejoin="round"/>
<path d="M9.88892 21V11C9.88892 8.56888 10.4445 6.55554 14.3334 6.55554" stroke="white" stroke-width="1.5" stroke-linecap="round" stroke-linejoin="round"/>
<path d="M7.66663 12.1111H14.3333" stroke="white" stroke-width="1.5" stroke-linecap="round" stroke-linejoin="round"/>
</svg>
