<svg width="18" height="20" viewBox="0 0 18 20" fill="none" xmlns="http://www.w3.org/2000/svg">
    <path fill-rule="evenodd" clip-rule="evenodd"
          d="M2.85714 5.37429V18.5714C2.85714 18.9503 2.70663 19.3137 2.43872 19.5816C2.17081 19.8495 1.80745 20 1.42857 20C1.04969 20 0.686328 19.8495 0.418419 19.5816C0.15051 19.3137 0 18.9503 0 18.5714V1.42857C0.000131987 1.13508 0.090654 0.848759 0.259256 0.608533C0.427857 0.368307 0.666356 0.185839 0.942319 0.0859431C1.21828 -0.0139531 1.51832 -0.0264289 1.80162 0.050211C2.08493 0.126851 2.33775 0.288887 2.52571 0.514286L14.2857 14.6257V1.42857C14.2857 1.04969 14.4362 0.686328 14.7041 0.418419C14.972 0.15051 15.3354 0 15.7143 0C16.0932 0 16.4565 0.15051 16.7244 0.418419C16.9923 0.686328 17.1429 1.04969 17.1429 1.42857V18.5714C17.1427 18.8649 17.0522 19.1512 16.8836 19.3915C16.715 19.6317 16.4765 19.8142 16.2005 19.9141C15.9246 20.014 15.6245 20.0264 15.3412 19.9498C15.0579 19.8732 14.8051 19.7111 14.6171 19.4857L2.85714 5.37429Z"
          fill="white"/>
</svg>
