<svg width="1060" height="1179" fill="none" xmlns="http://www.w3.org/2000/svg"><path fill-rule="evenodd" clip-rule="evenodd" d="M1018.47 550.773l1.16 4.838 1.25 4.874 1.32 4.916 1.4 4.962 1.47 5.014 1.54 5.069 1.59 5.129 1.65 5.193 1.68 5.261 1.73 5.33 1.74 5.403 1.77 5.477 1.77 5.553 1.76 5.631 1.75 5.707 1.73 5.785 1.69 5.862 1.65 5.936 1.59 6.011 1.53 6.082 1.45 6.151 1.36 6.216 1.26 6.279 1.17 6.336 1.04 6.39.93 6.439.79 6.484.66 6.521.51 6.555.36 6.581.2 6.602.03 6.616-.14 6.624-.31 6.624-.49 6.618-.67 6.606-.86 6.586-1.04 6.562-1.23 6.531-1.42 6.495-1.59 6.454-1.78 6.41-1.96 6.362-2.13 6.31-2.3 6.256-2.46 6.201-2.62 6.145-2.77 6.087-2.92 6.031-3.06 5.976-3.19 5.921-3.31 5.87-3.43 5.821-3.54 5.775-3.64 5.734-3.73 5.696-3.83 5.665-3.91 5.636-3.985 5.616-4.058 5.599-4.124 5.588-4.188 5.584-4.245 5.584-4.302 5.592-4.354 5.604-4.406 5.621-4.457 5.643-4.506 5.67-4.557 5.7-4.607 5.735-4.66 5.77-4.715 5.81-4.772 5.849-4.834 5.889-4.897 5.929-4.966 5.968-5.039 6.007-5.118 6.03-5.2 6.07-5.288 6.09-5.382 6.1-5.481 6.12-5.585 6.12-5.693 6.11-5.806 6.11-5.924 6.08-6.046 6.05-6.17 6-6.299 5.96-6.429 5.89-6.563 5.82-6.697 5.73-6.833 5.64-6.97 5.53-7.107 5.41-7.243 5.28-7.379 5.14-7.512 4.98-7.644 4.81-7.772 4.63-7.898 4.44-8.019 4.24-8.135 4.03-8.248 3.81-8.353 3.57-8.453 3.33-8.546 3.07-8.632 2.81-8.71 2.54-8.78 2.26-8.842 1.98-8.896 1.68-8.939 1.38-8.973 1.08-8.997.77-9.013.45-9.016.13-9.011-.19-8.994-.51-8.967-.84-8.929-1.16-8.881-1.49-8.823-1.81-8.754-2.13-8.674-2.45-8.586-2.77-8.486-3.08-8.379-3.38-8.261-3.68-8.135-3.98-8.002-4.26-7.859-4.54-7.71-4.8-7.555-5.06-7.393-5.31-7.226-5.55-7.053-5.77-6.878-5.99-6.697-6.19-6.514-6.38-6.33-6.56-6.143-6.72-5.955-6.87-5.768-7.01-5.581-7.14-5.395-7.25-5.211-7.35-5.029-7.44-4.851-7.51-4.675-7.57-4.505-7.62-4.338-7.66-4.177-7.69-4.021-7.704-3.87-7.708-3.728-7.705-3.59-7.69-3.463-7.663-3.345-7.628-3.236-7.58-3.14-7.521-3.054-7.452-2.983-7.373-2.924-7.284-2.879-7.185-2.849-7.079-2.834-6.965-2.833-6.845-2.848-6.718-2.878-6.586-2.923-6.453-2.983-6.314-3.057-6.176-3.148-6.036-3.251-5.896-3.368-5.759-3.5-5.624-3.644-5.491-3.8-5.363-3.97-5.241-4.15-5.123-4.342-5.013-4.545-4.909-4.756-4.815-4.976-4.729-5.2-4.654-5.429-4.592-5.659-4.542-5.89-4.506-6.118-4.485-6.342-4.477-6.56-4.486-6.768-4.51-6.968-4.549-7.154-4.604-7.326-4.675-7.482-4.76-7.621-4.861-7.74-4.975-7.838-5.102-7.914-5.243-7.966-5.394-7.994-5.557-7.995-5.728-7.972-5.908-7.919-6.095-7.841-6.286-7.735-6.484-7.6-6.682-7.439-6.883-7.249-7.083-7.033-7.282-6.791-7.477-6.524-7.669-6.232-7.854-5.916-8.032-5.58-8.202-5.222-8.363-4.846-8.512-4.452-8.651-4.043-8.777-3.621-8.889-3.187-8.988-2.743-9.072-2.293-9.142-1.837-9.195-1.377-9.235-.917-9.258-.459-9.266-.002-9.26.448-9.238.889-9.202 1.32-9.153 1.735-9.092 2.135-9.019 2.517-8.936 2.877-8.844 3.217-8.744 3.531-8.638 3.822-8.527 4.087-8.413 4.326-8.297 4.539-8.181 4.724-8.065 4.884-7.953 5.018-7.844 5.127-7.74 5.212-7.641 5.274-7.55 5.316-7.467 5.337-7.391 5.342-7.324 5.33-7.267 5.307-7.218 5.272-7.178 5.228-7.147 5.178-7.123 5.127-7.106 5.072-7.097 5.017-7.092 4.963-7.094 4.912-7.101 4.865-7.111 4.821-7.125 4.786-7.141 4.756-7.158 4.735-7.176 4.724-7.191 4.722-7.206 4.73-7.218 4.751-7.224 4.782-7.227 4.825-7.222 4.881-7.209 4.947-7.19 5.027-7.159 5.117-7.12 5.219-7.068 5.331-7.004 5.455-6.929 5.587-6.84 5.728-6.737 5.878-6.62 6.034-6.489 6.196-6.344 6.364-6.183 6.536-6.01 6.709-5.82 6.885-5.618 7.062-5.402 7.237-5.173 7.411-4.931 7.582-4.68 7.748-4.415 7.91-4.142 8.065-3.86 8.213-3.57 8.353-3.275 8.484-2.973 8.605-2.668 8.716-2.36 8.815-2.051 8.905-1.742 8.98-1.434 9.046-1.13 9.097-.827 9.139-.529L436.01 0l9.187.056 9.194.343 9.192.625 9.179.902 9.156 1.174 9.124 1.44 9.082 1.7 9.03 1.952 8.971 2.2 8.903 2.436 8.826 2.668 8.741 2.889 8.65 3.101 8.551 3.305 8.445 3.498 8.334 3.681 8.217 3.854 8.094 4.016 7.968 4.165 7.836 4.306 7.701 4.433 7.564 4.549 7.423 4.653 7.282 4.745 7.138 4.826 6.993 4.895 6.849 4.952 6.705 4.997 6.562 5.03 6.42 5.052 6.28 5.064 6.143 5.065 6.009 5.054 5.877 5.036 5.75 5.006 5.627 4.968 5.509 4.923 5.396 4.868 5.287 4.808 5.184 4.741 5.086 4.668 4.996 4.591 4.909 4.508 4.83 4.423 4.755 4.334 4.689 4.243 4.626 4.151 4.569 4.058 4.52 3.964 4.474 3.872 4.435 3.779 4.401 3.69 4.37 3.6 4.346 3.515 4.325 3.433 4.309 3.353 4.296 3.277 4.286 3.206 4.28 3.138 4.277 3.076 4.276 3.018 4.277 2.965 4.281 2.916 4.286 2.873 4.293 2.834 4.3 2.801 4.31 2.772 4.319 2.749 4.329 2.728 4.341 2.714 4.351 2.704 4.364 2.696 4.374 2.696 4.383 2.7 4.391 2.71 4.395 2.728 4.395 2.752 4.391 2.784 4.382 2.822 4.366 2.868 4.345 2.921 4.316 2.98 4.282 3.046 4.239 3.117 4.189 3.193 4.132 3.275 4.066 3.361 3.993 3.45 3.911 3.542 3.824 3.637 3.727 3.733 3.624 3.831 3.513 3.929 3.396 4.026 3.273 4.124 3.142 4.22 3.006 4.315 2.864 4.407 2.718 4.497 2.565 4.584 2.411 4.666 2.252 4.745 2.094 4.817 1.934 4.885 1.776 4.946 1.616 5 1.47 5.048 1.31 5.09 1.17 5.123 1.03 5.15.89 5.171.77 5.184.65 5.191.55 5.192.44 5.187.36 5.176.28 5.162.21 5.142.16 5.118.11 5.093.08 5.063.05 5.032.05 5 .04 4.968.06 4.934.08 4.903.11 4.871.14 4.843.2 4.816.26 4.793.32 4.774.38 4.757.47 4.745.55 4.739.63 4.736.71 4.74.81 4.748.89 4.762.99 4.783 1.07 4.807z" fill="url(#paint0_linear)"/><defs><linearGradient id="paint0_linear" x1="-3496.77" y1="4306.71" x2="-2635.97" y2="5005.62" gradientUnits="userSpaceOnUse"><stop stop-color="#3A6BEB"/><stop offset="1" stop-color="#3A6BEB" stop-opacity=".89"/></linearGradient></defs></svg>